<?xml version="1.0" encoding="utf-8"?>
<!-- Generator: Adobe Illustrator 26.5.0, SVG Export Plug-In . SVG Version: 6.00 Build 0)  -->
<svg version="1.1" id="icon" xmlns="http://www.w3.org/2000/svg" xmlns:xlink="http://www.w3.org/1999/xlink" x="0px" y="0px"
	 viewBox="0 0 50 50" style="enable-background:new 0 0 50 50;" xml:space="preserve">
<style type="text/css">
	.st0{fill-rule:evenodd;clip-rule:evenodd;}
</style>
<path id="book" class="st0" d="M5.95,11.67v27.85c2.1-0.94,5.09-1.93,8.47-1.93c3.36,0,6.35,0.97,8.47,1.93V11.67
	c-0.46-0.27-1.08-0.6-1.83-0.93c-1.75-0.77-4.09-1.51-6.64-1.51C10.74,9.23,7.51,10.77,5.95,11.67z M27.12,11.67v27.96
	c2.11-0.89,5.1-1.82,8.47-1.82c3.38,0,6.37,0.93,8.47,1.82V11.67c-1.57-0.9-4.79-2.44-8.47-2.44c-2.55,0-4.89,0.74-6.64,1.51
	C28.2,11.08,27.58,11.41,27.12,11.67z M25,8.01c-0.57-0.33-1.33-0.73-2.23-1.13C20.69,5.96,17.75,5,14.41,5
	C9.53,5,5.44,7.05,3.67,8.1c-1.3,0.77-1.96,2.14-1.96,3.49v29.45c0,1.32,0.78,2.32,1.68,2.83c0.89,0.5,2.1,0.63,3.19,0.06
	c1.74-0.91,4.62-2.09,7.83-2.09c4.03,0,7.52,1.85,8.86,2.67c1.04,0.64,2.35,0.66,3.41,0.05c1.34-0.77,4.84-2.51,8.9-2.51
	c3.26,0,6.17,1.12,7.91,1.98c2.01,1,4.79-0.33,4.79-2.92V11.59c0-1.34-0.65-2.72-1.96-3.49C44.56,7.05,40.47,5,35.59,5
	c-3.33,0-6.28,0.96-8.36,1.88C26.33,7.28,25.57,7.68,25,8.01z"/>
</svg>
