<?xml version="1.0" encoding="utf-8"?>
<!-- Generator: Adobe Illustrator 26.5.0, SVG Export Plug-In . SVG Version: 6.00 Build 0)  -->
<svg version="1.1" id="icon" xmlns="http://www.w3.org/2000/svg" xmlns:xlink="http://www.w3.org/1999/xlink" x="0px" y="0px"
	 viewBox="0 0 50 50" style="enable-background:new 0 0 50 50;" xml:space="preserve">
<path id="dice" d="M25,2c-0.8,0-1.4,0.2-1.9,0.4L6.2,12.1c-0.6,0.4-0.8,0.8-0.8,1.2c0,0.4,0.4,0.8,0.8,1.2l16.8,9.8
	c0.6,0.2,1.2,0.4,1.9,0.4c0.8,0,1.4-0.2,1.9-0.4l16.8-9.8c0.6-0.2,0.8-0.8,0.8-1.2c0-0.4-0.4-0.8-0.8-1.2L26.9,2.4
	C26.4,2.2,25.6,2,25,2L25,2z M25,3.3c1,0,1.9,0.2,2.5,0.6c1.4,0.8,1.4,2.1,0,2.9c-1.4,0.8-3.7,0.8-4.9,0c-1.4-0.6-1.4-1.9,0-2.9
	C23.1,3.5,24,3.3,25,3.3C24.8,3.3,25,3.3,25,3.3L25,3.3z M5.2,16.4c-0.2,0-0.4,0-0.4,0.2c-0.6,0-0.8,0.6-0.8,1.2v17.4
	c0,0.6,0.2,1.4,0.6,1.9c0.4,0.4,1,1,1.4,1.4l16.2,9.3c0.6,0.2,1,0.4,1.4,0.2c0.4-0.2,0.6-0.6,0.6-1.2V29.4c0-0.6-0.2-1.4-0.6-1.9
	c-0.4-0.6-0.8-1.2-1.4-1.4L5.8,16.6C5.6,16.4,5.3,16.2,5.2,16.4L5.2,16.4z M44.8,16.4c-0.2,0-0.6,0-1,0.2L27.6,26
	c-0.6,0.2-1,0.8-1.4,1.4l0,0c-0.4,0.6-0.6,1.4-0.6,1.9v17.4c0,0.6,0.2,1,0.6,1.2c0.4,0.2,0.8,0.2,1.4-0.2l16.5-9.2
	c0.6-0.2,1-0.8,1.4-1.4c0.4-0.6,0.6-1.4,0.6-1.9V17.8c0-0.6-0.2-1-0.6-1.2C45.2,16.4,45,16.4,44.8,16.4L44.8,16.4z M43.4,18.6
	c0.8,0,1.2,0.8,1.2,1.7c0,1.5-1.2,3.5-2.5,4.2c-1.4,0.8-2.5,0.2-2.5-1.4s1.2-3.5,2.5-4.2C42.6,18.8,43,18.6,43.4,18.6L43.4,18.6z
	 M25,18.8c1,0,1.9,0.2,2.5,0.6c1.4,0.8,1.4,2.1,0,2.9c-1.4,0.8-3.7,0.8-4.9,0c-1.4-0.8-1.4-2.1,0-2.9C23.1,19.2,24,19,25,18.8
	C24.8,18.8,25,18.8,25,18.8L25,18.8z M12.8,29c1.2,0,2.7,1.2,3.5,2.9c0.2,0.6,0.4,1.2,0.4,1.5c0,1.5-1.2,2.1-2.5,1.4
	c-1.5-0.6-2.5-2.5-2.5-4C11.6,29.7,12,29,12.8,29L12.8,29z M37.2,29L37.2,29c0.8,0,1.2,0.8,1.2,1.7c0,1.5-1.2,3.5-2.5,4.2
	c-1.4,0.8-2.5,0.2-2.5-1.4c0-1.5,1.2-3.5,2.5-4.2C36.5,29,36.8,29,37.2,29z M31.1,39.3c0.8,0,1.2,0.8,1.2,1.7c0,1.5-1.2,3.5-2.5,4.2
	c-1.4,0.8-2.5,0.2-2.5-1.4c0-1.5,1.2-3.5,2.5-4.2C30.1,39.5,30.7,39.3,31.1,39.3z"/>
</svg>
