<?xml version="1.0" encoding="utf-8"?>
<!-- Generator: Adobe Illustrator 26.3.1, SVG Export Plug-In . SVG Version: 6.00 Build 0)  -->
<svg version="1.1" baseProfile="tiny" id="icon" xmlns="http://www.w3.org/2000/svg" xmlns:xlink="http://www.w3.org/1999/xlink"
	 x="0px" y="0px" viewBox="0 0 50 50" overflow="visible" xml:space="preserve">
<path id="dice" d="M25,1.2c-0.8,0-1.4,0.2-2,0.4L5.6,11.7c-0.6,0.4-0.8,0.8-0.8,1.2c0,0.4,0.4,0.8,0.8,1.2L23,24.2
	c0.6,0.2,1.2,0.4,2,0.4s1.4-0.2,2-0.4l17.4-10.1c0.6-0.2,0.8-0.8,0.8-1.2c0-0.4-0.4-0.8-0.8-1.2L27,1.6C26.4,1.4,25.6,1.2,25,1.2
	L25,1.2z M25,2.6c1,0,2,0.2,2.6,0.6c1.4,0.8,1.4,2.2,0,3c-1.4,0.8-3.8,0.8-5.1,0c-1.4-0.6-1.4-2,0-3C23,2.8,24,2.6,25,2.6
	C24.8,2.6,25,2.6,25,2.6L25,2.6z M4.5,16.1c-0.2,0-0.4,0-0.4,0.2c-0.6,0-0.8,0.6-0.8,1.2v18c0,0.6,0.2,1.4,0.6,2
	c0.4,0.4,1,1,1.4,1.4L22,48.5c0.6,0.2,1,0.4,1.4,0.2c0.4-0.2,0.6-0.6,0.6-1.2v-18c0-0.6-0.2-1.4-0.6-2s-0.8-1.2-1.4-1.4L5.2,16.3
	C5,16.1,4.6,15.9,4.5,16.1L4.5,16.1z M45.5,16.1c-0.2,0-0.6,0-1,0.2l-16.8,9.7c-0.6,0.2-1,0.8-1.4,1.4l0,0c-0.4,0.6-0.6,1.4-0.6,2
	v18c0,0.6,0.2,1,0.6,1.2c0.4,0.2,0.8,0.2,1.4-0.2l17-9.5c0.6-0.2,1-0.8,1.4-1.4c0.4-0.6,0.6-1.4,0.6-2v-18c0-0.6-0.2-1-0.6-1.2
	C45.9,16.1,45.7,16.1,45.5,16.1L45.5,16.1z M44,18.4c0.8,0,1.2,0.8,1.2,1.8c0,1.6-1.2,3.6-2.6,4.3c-1.4,0.8-2.6,0.2-2.6-1.4
	c0-1.6,1.2-3.6,2.6-4.3C43.2,18.6,43.6,18.4,44,18.4L44,18.4z M25,18.6c1,0,2,0.2,2.6,0.6c1.4,0.8,1.4,2.2,0,3
	c-1.4,0.8-3.8,0.8-5.1,0c-1.4-0.8-1.4-2.2,0-3C23,19,24,18.8,25,18.6C24.8,18.6,25,18.6,25,18.6L25,18.6z M12.4,29.1
	c1.2,0,2.8,1.2,3.6,3c0.2,0.6,0.4,1.2,0.4,1.6c0,1.6-1.2,2.2-2.6,1.4c-1.6-0.6-2.6-2.6-2.6-4.1C11.2,29.9,11.6,29.1,12.4,29.1
	L12.4,29.1z M37.6,29.1L37.6,29.1c0.8,0,1.2,0.8,1.2,1.8c0,1.6-1.2,3.6-2.6,4.3c-1.4,0.8-2.6,0.2-2.6-1.4c0-1.6,1.2-3.6,2.6-4.3
	C36.9,29.1,37.2,29.1,37.6,29.1z M31.3,39.8c0.8,0,1.2,0.8,1.2,1.8c0,1.6-1.2,3.6-2.6,4.3c-1.4,0.8-2.6,0.2-2.6-1.4
	c0-1.6,1.2-3.6,2.6-4.3C30.3,40,30.9,39.8,31.3,39.8z"/>
</svg>
