<?xml version="1.0" encoding="utf-8"?>
<!-- Generator: Adobe Illustrator 26.5.0, SVG Export Plug-In . SVG Version: 6.00 Build 0)  -->
<svg version="1.1" id="icon" xmlns="http://www.w3.org/2000/svg" xmlns:xlink="http://www.w3.org/1999/xlink" x="0px" y="0px"
	 viewBox="0 0 50 50" style="enable-background:new 0 0 50 50;" xml:space="preserve">
<style type="text/css">
	.st0{fill-rule:evenodd;clip-rule:evenodd;stroke:#000000;stroke-width:0.738;stroke-miterlimit:1.9219;}
</style>
<g id="dice">
	<path id="cube" class="st0" d="M4.5,14.7c0-1.1,0.8-2.5,1.8-3.1l17-10.2c1-0.6,2.5-0.6,3.5,0l17,10.2c1,0.6,1.8,2,1.8,3.1l0,20.4
		c0,1.1-0.8,2.5-1.8,3.1l-17,10.3c-1,0.6-2.5,0.6-3.5,0L6.3,38.3c-1-0.6-1.8-2-1.8-3.1L4.5,14.7L4.5,14.7z M8.1,13.1L25,22.5
		L41,13.2L24.9,3.8L8.1,13.1L8.1,13.1z M7,16.1c0,0.4-0.3,18.4-0.3,18.4c0,0.6,0.4,1.3,0.9,1.6l15.8,9.5l0.1-19.8
		C23.5,25.8,7,15.7,7,16.1L7,16.1z M26.5,45.6l15.6-9.9c0.6-0.4,1.1-1.3,1.1-2V16l-16.7,9.6C26.5,25.6,26.5,45.6,26.5,45.6z"/>
	<path id="dots" class="st0" d="M12.5,26.7c-1,0.6-2.3,0.2-3-0.9c-0.6-1.1-0.3-2.5,0.7-3c1-0.6,2.3-0.2,3,0.9
		C13.8,24.8,13.5,26.1,12.5,26.7z M19.5,31.3c-1,0.6-2.3,0.2-3-0.9c-0.6-1.1-0.3-2.5,0.7-3c1-0.6,2.3-0.2,3,0.9
		C20.8,29.4,20.5,30.7,19.5,31.3z M12.5,34.8c-1,0.6-2.3,0.2-3-0.9c-0.6-1.1-0.3-2.5,0.7-3c1-0.6,2.3-0.2,3,0.9
		C13.8,32.8,13.5,34.2,12.5,34.8z M19.5,39.3c-1,0.6-2.3,0.2-3-0.9c-0.6-1.1-0.3-2.5,0.7-3c1-0.6,2.3-0.2,3,0.9
		C20.8,37.4,20.5,38.8,19.5,39.3z M39.9,21.8c-1-0.6-2.3-0.2-3,0.9c-0.6,1.1-0.3,2.5,0.7,3c1,0.6,2.3,0.2,3-0.9
		C41.2,23.8,40.9,22.4,39.9,21.8z M36,28.8c-1-0.6-2.3-0.2-3,0.9c-0.6,1.1-0.3,2.5,0.7,3c1,0.6,2.3,0.2,3-0.9
		C37.3,30.7,37,29.4,36,28.8z M31.9,35.5c-1-0.6-2.3-0.2-3,0.9c-0.6,1.1-0.3,2.5,0.7,3c1,0.6,2.3,0.2,3-0.9
		C33.2,37.4,32.9,36.1,31.9,35.5z M25.2,10.4c-1.3,0-2.4,1-2.4,2.3s1.1,2.3,2.4,2.3s2.4-1,2.4-2.3S26.5,10.4,25.2,10.4z"/>
</g>
</svg>
