<?xml version="1.0" encoding="utf-8"?>
<!-- Generator: Adobe Illustrator 27.9.0, SVG Export Plug-In . SVG Version: 6.00 Build 0)  -->
<svg version="1.1" id="icon" xmlns="http://www.w3.org/2000/svg" xmlns:xlink="http://www.w3.org/1999/xlink" x="0px" y="0px"
	 viewBox="0 0 50 50" style="enable-background:new 0 0 50 50;" xml:space="preserve">
<style type="text/css">
	.st0{fill:none;stroke:#000000;stroke-width:4;stroke-linecap:round;stroke-linejoin:round;}
	.st1{fill:none;stroke:#000000;stroke-width:2.5;stroke-linecap:round;stroke-linejoin:round;stroke-miterlimit:133.3333;}
</style>
<path id="outside" class="st0" d="M29.1,4H12.4C10,4,8.2,5.8,8.2,8.2v33.6c0,2.3,1.8,4.2,4.2,4.2h25.2c2.3,0,4.2-1.8,4.2-4.2V16.7
	L29.1,4z"/>
<path class="st1" d="M20.7,35.6c0,1.1-1.4,2-3,2s-3-0.9-3-2s1.4-2,3-2S20.7,34.5,20.7,35.6z M20.7,35.6V21.5l12.1-2v14.1 M32.9,33.6
	c0,1.1-1.4,2-3,2c-1.7,0-3-0.9-3-2s1.4-2,3-2C31.5,31.6,32.9,32.5,32.9,33.6z M20.7,25.5l12.1-2"/>
</svg>
