<?xml version="1.0" encoding="UTF-8"?>
<svg xmlns="http://www.w3.org/2000/svg" baseProfile="tiny" version="1.2" viewBox="0 0 50 50">
  <!-- Generator: Adobe Illustrator 28.6.0, SVG Export Plug-In . SVG Version: 1.2.0 Build 709)  -->
  <g>
    <g id="icon">
      <g>
        <path d="M7.5,20c2.8,0,5,2.2,5,5s-2.2,5-5,5-5-2.2-5-5,2.2-5,5-5Z"/>
        <path d="M25,20c2.8,0,5,2.2,5,5s-2.2,5-5,5-5-2.2-5-5,2.2-5,5-5Z"/>
        <path d="M47.5,25c0-2.8-2.2-5-5-5s-5,2.2-5,5,2.2,5,5,5,5-2.2,5-5Z"/>
      </g>
    </g>
  </g>
</svg>