<?xml version="1.0" encoding="UTF-8"?>
<svg xmlns="http://www.w3.org/2000/svg" baseProfile="tiny" version="1.2" viewBox="0 0 50 50">
  <!-- Generator: Adobe Illustrator 28.6.0, SVG Export Plug-In . SVG Version: 1.2.0 Build 709)  -->
  <g>
    <g id="icon">
      <path id="download" d="M5.6,15.3v21.3c0,2.7,0,4.1.5,5.1.5.9,1.2,1.7,2.1,2.1,1,.5,2.4.5,5.1.5h23.3c2.7,0,4.1,0,5.1-.5.9-.5,1.7-1.2,2.1-2.1.5-1,.5-2.4.5-5.1V15.3M5.6,15.3h38.8M5.6,15.3l3.3-5.8c.8-1.4,1.2-2.1,1.8-2.7.5-.5,1.1-.8,1.8-1,.7-.2,1.6-.2,3.2-.2h18.7c1.6,0,2.5,0,3.2.2.6.2,1.2.6,1.8,1,.6.5,1,1.2,1.8,2.7l3.3,5.8M25,22.6v14.6M25,37.1l7.3-4.9M25,37.1l-7.3-4.9" fill="none" stroke="#000" stroke-linecap="round" stroke-linejoin="round" stroke-width="4.8"/>
    </g>
  </g>
</svg>