<?xml version="1.0" encoding="utf-8"?>
<!-- Generator: Adobe Illustrator 26.5.0, SVG Export Plug-In . SVG Version: 6.00 Build 0)  -->
<svg version="1.1" id="icon" xmlns="http://www.w3.org/2000/svg" xmlns:xlink="http://www.w3.org/1999/xlink" x="0px" y="0px"
	 viewBox="0 0 50 50" style="enable-background:new 0 0 50 50;" xml:space="preserve">
<style type="text/css">
	.st0{fill:none;stroke:#000000;stroke-width:5;stroke-linecap:round;stroke-linejoin:round;stroke-miterlimit:133.3333;}
</style>
<path id="external_x5F_link" class="st0" d="M18.67,8.53h-4.56c-2.84,0-4.26,0-5.34,0.55c-0.95,0.49-1.73,1.26-2.21,2.21
	C6,12.38,6,13.8,6,16.64v19.25c0,2.84,0,4.26,0.55,5.34c0.49,0.95,1.26,1.73,2.21,2.21C9.85,44,11.27,44,14.1,44h19.27
	c2.83,0,4.25,0,5.33-0.55c0.95-0.49,1.73-1.26,2.22-2.22c0.55-1.08,0.55-2.5,0.55-5.33v-4.57 M44,18.67V6 M44,6H31.33 M44,6
	L26.27,23.73"/>
</svg>
