<?xml version="1.0" encoding="UTF-8"?>
<svg xmlns="http://www.w3.org/2000/svg" baseProfile="tiny" version="1.2" viewBox="0 0 50 50">
  <!-- Generator: Adobe Illustrator 28.6.0, SVG Export Plug-In . SVG Version: 1.2.0 Build 709)  -->
  <g>
    <g id="icon">
      <path d="M26.5,4.9l5.7,11.5h0,0s13.2,0,13.2,0c.8,0,1.5.6,1.6,1.4v.2c0,.8-.6,1.5-1.4,1.6h-.2s-14.3,0-14.3,0c-.6,0-1.1-.3-1.4-.7v-.2c-.1,0-1.9-3.6-1.9-3.6l-2.8-5.8-4.8,9.8c-.2.5-.7.8-1.2.9l-10.8,1.6,7.8,7.6c.4.4.6.9.5,1.5l-1.8,10.7,9.5-5c-.2.5-.2,1-.2,1.6s.2,1.4.5,2.1l-11.2,5.9c-1.2.6-2.6-.4-2.4-1.7l2.3-13.2L3.5,21.6c-1-1-.4-2.6.9-2.8l13.2-1.9,5.9-12c.6-1.2,2.4-1.2,3,0ZM45.4,36.2c.9,0,1.6.7,1.6,1.6s-.6,1.5-1.4,1.6h-.2s-16.5,0-16.5,0c-.9,0-1.6-.7-1.6-1.6s.6-1.5,1.4-1.6h.2s16.5,0,16.5,0ZM45.4,26.3c.9,0,1.6.7,1.6,1.6s-.6,1.5-1.4,1.6h-.2s-16.5,0-16.5,0c-.9,0-1.6-.7-1.6-1.6s.6-1.5,1.4-1.6h.2s16.5,0,16.5,0Z" stroke="#000" stroke-miterlimit="10" stroke-width=".5"/>
    </g>
  </g>
</svg>