<?xml version="1.0" encoding="UTF-8"?>
<svg id="icon" xmlns="http://www.w3.org/2000/svg" version="1.1" viewBox="0 0 50 50">
  <defs>
    <style>
      .cls-1 {
        fill: none;
        stroke: #000;
        stroke-linecap: round;
        stroke-linejoin: round;
        stroke-width: 4px;
      }
    </style>
  </defs>
  <path id="filter" class="cls-1" d="M45.3,13.4h-4.5M45.3,26.9h-11.3M45.3,40.5h-11.3M13.7,45v-14.5c0-.5,0-.7,0-.9,0-.2-.1-.4-.2-.6-.1-.2-.3-.4-.5-.8l-7.4-9.3c-.3-.4-.4-.5-.5-.8,0-.2-.2-.4-.2-.6,0-.2,0-.5,0-.9v-4.1c0-1.3,0-1.9.2-2.4.2-.4.6-.8,1-1,.5-.2,1.1-.2,2.4-.2h19.9c1.3,0,1.9,0,2.4.2.4.2.8.6,1,1,.2.5.2,1.1.2,2.4v4.1c0,.5,0,.7,0,.9,0,.2-.1.4-.2.6-.1.2-.3.4-.5.8l-7.4,9.3c-.3.4-.4.5-.5.8,0,.2-.2.4-.2.6,0,.2,0,.5,0,.9v7.8l-9,6.8Z"/>
</svg>