<?xml version="1.0" encoding="utf-8"?>
<!-- Generator: Adobe Illustrator 26.5.0, SVG Export Plug-In . SVG Version: 6.00 Build 0)  -->
<svg version="1.1" id="icon" xmlns="http://www.w3.org/2000/svg" xmlns:xlink="http://www.w3.org/1999/xlink" x="0px" y="0px"
	 viewBox="0 0 50 50" style="enable-background:new 0 0 50 50;" xml:space="preserve">
<style type="text/css">
	.st0{fill-rule:evenodd;clip-rule:evenodd;}
</style>
<path id="home" class="st0" d="M39.98,40.79c0,1.3-1.12,1.85-2.5,1.85h-2.5c-1.38,0-2.5-0.55-2.5-1.85v-2.35c0-2.6-2.23-5.2-5-5.2
	h-5c-2.77,0-5,2.61-5,5.2v2.35c0,1.3-1.12,1.85-2.5,1.85h-2.5c-1.38,0-2.5-0.55-2.5-1.85V21.82c0-0.31,0.13-0.61,0.36-0.83
	L23.2,8.92c0.98-0.91,2.56-0.91,3.53,0l12.88,12.13c0.23,0.22,0.36,0.52,0.36,0.83V40.79z M44.98,20.6c0-0.63-0.27-1.22-0.72-1.66
	L28.51,4.04c-1.95-1.84-5.12-1.85-7.07-0.01L5.73,18.77C5.27,19.21,5,19.81,5,20.44v22.7c0,2.6,2.23,4.2,5,4.2h7.5
	c2.77,0,5-1.61,5-4.2v-2.35c0-1.3,1.12-2.35,2.5-2.35c1.38,0,2.5,1.05,2.5,2.35v2.35c0,2.6,2.23,4.2,5,4.2H40c2.77,0,5-1.61,5-4.2
	V20.6H44.98z"/>
</svg>
