<?xml version="1.0" encoding="utf-8"?>
<!-- Generator: Adobe Illustrator 27.9.0, SVG Export Plug-In . SVG Version: 6.00 Build 0)  -->
<svg version="1.1" id="icon" xmlns="http://www.w3.org/2000/svg" xmlns:xlink="http://www.w3.org/1999/xlink" x="0px" y="0px"
	 viewBox="0 0 50 50" style="enable-background:new 0 0 50 50;" xml:space="preserve">
<style type="text/css">
	.st0{fill:none;stroke:#000000;stroke-width:4.2;stroke-miterlimit:133.3333;}
	.st1{fill:none;stroke:#000000;stroke-width:4.2;stroke-linecap:round;stroke-miterlimit:133.3333;}
</style>
<g id="keyboard">
	<path d="M14.5,18.7c0,1.2-0.9,2.1-2.1,2.1s-2.1-0.9-2.1-2.1c0-1.2,0.9-2.1,2.1-2.1S14.5,17.5,14.5,18.7z"/>
	<path d="M14.5,25c0,1.2-0.9,2.1-2.1,2.1s-2.1-0.9-2.1-2.1s0.9-2.1,2.1-2.1S14.5,23.8,14.5,25z"/>
	<path d="M20.8,25c0,1.2-0.9,2.1-2.1,2.1c-1.2,0-2.1-0.9-2.1-2.1s0.9-2.1,2.1-2.1C19.9,22.9,20.8,23.8,20.8,25z"/>
	<path d="M20.8,18.7c0,1.2-0.9,2.1-2.1,2.1c-1.2,0-2.1-0.9-2.1-2.1c0-1.2,0.9-2.1,2.1-2.1C19.9,16.6,20.8,17.5,20.8,18.7z"/>
	<path d="M27.1,18.7c0,1.2-0.9,2.1-2.1,2.1s-2.1-0.9-2.1-2.1c0-1.2,0.9-2.1,2.1-2.1S27.1,17.5,27.1,18.7z"/>
	<path d="M27.1,25c0,1.2-0.9,2.1-2.1,2.1s-2.1-0.9-2.1-2.1s0.9-2.1,2.1-2.1S27.1,23.8,27.1,25z"/>
	<path d="M33.4,18.7c0,1.2-0.9,2.1-2.1,2.1c-1.2,0-2.1-0.9-2.1-2.1c0-1.2,0.9-2.1,2.1-2.1C32.5,16.6,33.4,17.5,33.4,18.7z"/>
	<path d="M33.4,25c0,1.2-0.9,2.1-2.1,2.1c-1.2,0-2.1-0.9-2.1-2.1s0.9-2.1,2.1-2.1C32.5,22.9,33.4,23.8,33.4,25z"/>
	<path d="M39.7,18.7c0,1.2-0.9,2.1-2.1,2.1c-1.2,0-2.1-0.9-2.1-2.1c0-1.2,0.9-2.1,2.1-2.1C38.8,16.6,39.7,17.5,39.7,18.7z"/>
	<path d="M39.7,25c0,1.2-0.9,2.1-2.1,2.1c-1.2,0-2.1-0.9-2.1-2.1s0.9-2.1,2.1-2.1C38.8,22.9,39.7,23.8,39.7,25z"/>
	<path class="st0" d="M4,22.9C4,17,4,14,5.8,12.1s4.8-1.8,10.8-1.8h16.8c5.9,0,8.9,0,10.8,1.8C46,14,46,17,46,22.9v4.2
		c0,5.9,0,8.9-1.8,10.8c-1.8,1.8-4.8,1.8-10.8,1.8H16.6c-5.9,0-8.9,0-10.8-1.8C4,36,4,33,4,27.1V22.9z"/>
	<path class="st1" d="M14.5,33.4h21"/>
</g>
</svg>
