<?xml version="1.0" encoding="utf-8"?>
<!-- Generator: Adobe Illustrator 26.3.1, SVG Export Plug-In . SVG Version: 6.00 Build 0)  -->
<svg version="1.1" baseProfile="tiny" id="icon" xmlns="http://www.w3.org/2000/svg" xmlns:xlink="http://www.w3.org/1999/xlink"
	 x="0px" y="0px" viewBox="0 0 50 50" overflow="visible" xml:space="preserve">
<g id="link">
	<path id="bottom" fill="none" stroke="#000000" stroke-width="4.2789" stroke-linecap="round" stroke-linejoin="round" d="
		M29.3,22.9c-3.5-4.7-10.2-5.7-15-2.2c-0.4,0.3-0.8,0.6-1.2,1l-6.4,6.4c-4.1,4.3-4,11,0.3,15.1c4.2,4,10.7,4,14.9,0l3.7-3.7"/>
	<path id="top" fill="none" stroke="#000000" stroke-width="4.2789" stroke-linecap="round" stroke-linejoin="round" d="M20.7,27.1
		c3.5,4.7,10.2,5.7,15,2.2c0.4-0.3,0.8-0.6,1.2-1l6.4-6.4c4.1-4.3,4-11-0.3-15.1c-4.2-4-10.7-4-14.9,0l-3.7,3.7"/>
</g>
</svg>
