<?xml version="1.0" encoding="utf-8"?>
<!-- Generator: Adobe Illustrator 26.5.0, SVG Export Plug-In . SVG Version: 6.00 Build 0)  -->
<svg version="1.1" id="icon" xmlns="http://www.w3.org/2000/svg" xmlns:xlink="http://www.w3.org/1999/xlink" x="0px" y="0px"
	 viewBox="0 0 50 50" style="enable-background:new 0 0 50 50;" xml:space="preserve">
<style type="text/css">
	.st0{fill:none;stroke:#000000;stroke-width:4.3;stroke-linecap:round;stroke-linejoin:round;}
</style>
<g id="link">
	<path id="bottom" class="st0" d="M29.26,22.92c-3.47-4.66-10.1-5.65-14.86-2.18c-0.4,0.3-0.79,0.59-1.19,0.99l-6.34,6.34
		c-4.06,4.26-3.96,10.9,0.3,14.96c4.16,3.96,10.6,3.96,14.76,0l3.67-3.67"/>
	<path id="top" class="st0" d="M20.74,27.08c3.47,4.66,10.1,5.65,14.86,2.18c0.4-0.3,0.79-0.59,1.19-0.99l6.34-6.34
		c4.06-4.26,3.96-10.9-0.3-14.96c-4.16-3.96-10.6-3.96-14.76,0l-3.67,3.67"/>
</g>
</svg>
