<?xml version="1.0" encoding="utf-8"?>
<!-- Generator: Adobe Illustrator 27.9.0, SVG Export Plug-In . SVG Version: 6.00 Build 0)  -->
<svg version="1.1" id="icon" xmlns="http://www.w3.org/2000/svg" xmlns:xlink="http://www.w3.org/1999/xlink" x="0px" y="0px"
	 viewBox="0 0 50 50" style="enable-background:new 0 0 50 50;" xml:space="preserve">
<style type="text/css">
	.st0{fill:none;stroke:#000000;stroke-width:5.2;stroke-linecap:round;stroke-linejoin:round;stroke-miterlimit:133.3333;}
</style>
<path class="st0" d="M13.6,45.6h22.9 M11.7,36.4h26.5c2.6,0,3.8,0,4.8-0.5c0.9-0.4,1.6-1.1,2-2c0.5-1,0.5-2.3,0.5-4.8V11.7
	c0-2.6,0-3.8-0.5-4.8c-0.4-0.9-1.1-1.6-2-2c-1-0.5-2.3-0.5-4.8-0.5H11.7c-2.6,0-3.8,0-4.8,0.5c-0.9,0.4-1.6,1.1-2,2
	c-0.5,1-0.5,2.3-0.5,4.8v17.4c0,2.6,0,3.8,0.5,4.8c0.4,0.9,1.1,1.6,2,2C7.9,36.4,9.2,36.4,11.7,36.4z"/>
</svg>
