<?xml version="1.0" encoding="UTF-8"?>
<svg id="icon" xmlns="http://www.w3.org/2000/svg" version="1.1" viewBox="0 0 50 50">
  <defs>
    <style>
      .cls-1 {
        fill: #000;
        stroke: #000;
        stroke-miterlimit: 10;
        stroke-width: .5px;
      }
    </style>
  </defs>
  <path class="cls-1" d="M24.5,43.3c1.4,0,2.3-1,2.3-2.3V9.1c0-1.3-1-2.5-2.4-2.5s-1.6.5-2.7,1.4l-9.4,8.3c-.1.1-.3.2-.5.2h-5.9c-2.8,0-4.2,1.4-4.2,4.4v8c0,3,1.4,4.4,4.2,4.4h5.9c.2,0,.4,0,.5.2l9.4,8.4c1,.9,1.8,1.3,2.7,1.3ZM41.8,39.3c.8.5,1.7.3,2.3-.5,2.6-3.7,4.2-8.6,4.2-13.7s-1.5-10-4.2-13.7c-.6-.8-1.5-1-2.3-.5-.8.5-.9,1.5-.3,2.4,2.2,3.2,3.5,7.4,3.5,11.8s-1.3,8.7-3.5,11.8c-.6.9-.5,1.8.3,2.4ZM23.4,39.1c0,0-.2,0-.3-.2l-8.9-8c-.5-.4-.9-.5-1.4-.5h-6.7c-.8,0-1.2-.4-1.2-1.2v-8.5c0-.8.4-1.2,1.2-1.2h6.7c.5,0,.9,0,1.4-.5l8.9-8c0,0,.2-.2.3-.2.2,0,.3.1.3.3v27.6c0,.2,0,.3-.3.3ZM33.8,33.9c.7.5,1.7.3,2.2-.5,1.6-2.1,2.5-5.2,2.5-8.3s-1-6.2-2.5-8.3c-.6-.8-1.5-.9-2.2-.5-.9.6-1,1.6-.3,2.5,1.2,1.6,1.9,3.9,1.9,6.3s-.7,4.8-1.9,6.3c-.6.9-.5,1.8.4,2.4Z"/>
</svg>