<?xml version="1.0" encoding="utf-8"?>
<!-- Generator: Adobe Illustrator 26.5.0, SVG Export Plug-In . SVG Version: 6.00 Build 0)  -->
<svg version="1.1" id="icon" xmlns="http://www.w3.org/2000/svg" xmlns:xlink="http://www.w3.org/1999/xlink" x="0px" y="0px"
	 viewBox="0 0 50 50" style="enable-background:new 0 0 50 50;" xml:space="preserve">
<style type="text/css">
	.st0{fill-rule:evenodd;clip-rule:evenodd;stroke:#000000;stroke-width:6.400000e-04;stroke-miterlimit:10.6667;}
</style>
<path id="music" class="st0" d="M45.6,4.4c0-0.7-0.3-1.4-0.9-1.9c-0.6-0.5-1.3-0.7-2-0.5L16.1,6.9c-1.2,0.2-2,1.2-2,2.4v9.7v15
	c-0.8-0.3-1.6-0.4-2.4-0.4c-4,0-7.3,3.3-7.3,7.3c0,4,3.3,7.3,7.3,7.3s7.3-3.3,7.3-7.3V21l21.8-4v12.1c-0.8-0.3-1.6-0.4-2.4-0.4
	c-4,0-7.3,3.3-7.3,7.3c0,4,3.3,7.3,7.3,7.3s7.3-3.3,7.3-7.3V14.1V4.4z M40.8,35.9c0-1.3-1.1-2.4-2.4-2.4s-2.4,1.1-2.4,2.4
	s1.1,2.4,2.4,2.4S40.8,37.3,40.8,35.9z M14.1,40.8c0-1.3-1.1-2.4-2.4-2.4s-2.4,1.1-2.4,2.4c0,1.3,1.1,2.4,2.4,2.4
	S14.1,42.1,14.1,40.8z M40.8,12.1l-21.8,4v-4.8l21.8-4V12.1z"/>
</svg>
