<?xml version="1.0" encoding="utf-8"?>
<!-- Generator: Adobe Illustrator 26.3.1, SVG Export Plug-In . SVG Version: 6.00 Build 0)  -->
<svg version="1.1" baseProfile="tiny" id="icon" xmlns="http://www.w3.org/2000/svg" xmlns:xlink="http://www.w3.org/1999/xlink"
	 x="0px" y="0px" viewBox="0 0 50 50" overflow="visible" xml:space="preserve">
<g id="settings">
	
		<circle id="indise" fill="none" stroke="#000000" stroke-width="3.9545" stroke-linecap="round" stroke-linejoin="round" cx="25" cy="25" r="5.9"/>
	<path id="outside" fill="none" stroke="#000000" stroke-width="3.9545" stroke-linecap="round" stroke-linejoin="round" d="
		M39.6,30.9c-0.5,1.2-0.3,2.6,0.7,3.6l0.1,0.1c1.5,1.5,1.5,4.1,0,5.6l0,0c-1.5,1.5-4.1,1.5-5.6,0l0,0l-0.1-0.1
		c-0.9-0.9-2.4-1.2-3.6-0.7c-1.2,0.5-2,1.7-2,3v0.3c0,2.2-1.8,4-4,4s-4-1.8-4-4v-0.2c0-1.3-0.9-2.5-2.1-3c-1.2-0.5-2.6-0.3-3.6,0.7
		l-0.1,0.1c-1.5,1.5-4.1,1.5-5.6,0l0,0c-1.5-1.5-1.5-4.1,0-5.6l0,0l0.1-0.1c0.9-0.9,1.2-2.4,0.7-3.6c-0.5-1.2-1.7-2-3-2H7.2
		c-2.2,0-4-1.8-4-4s1.8-4,4-4h0.2c1.3,0,2.5-0.9,3-2.1c0.5-1.2,0.3-2.6-0.7-3.6l-0.1-0.1c-1.5-1.5-1.5-4.1,0-5.6l0,0
		c1.5-1.5,4.1-1.5,5.6,0l0,0l0.1,0.1c0.9,0.9,2.4,1.2,3.6,0.7h0.2c1.2-0.5,2-1.7,2-3V7.2c0-2.2,1.8-4,4-4s4,1.8,4,4v0.2
		c0,1.3,0.8,2.5,2,3c1.2,0.5,2.6,0.3,3.6-0.7l0.1-0.1c1.5-1.5,4.1-1.5,5.6,0l0,0c1.5,1.5,1.5,4.1,0,5.6l0,0l-0.1,0.1
		c-0.9,0.9-1.2,2.4-0.7,3.6v0.2c0.5,1.2,1.7,2,3,2h0.3c2.2,0,4,1.8,4,4s-1.8,4-4,4h-0.2C41.3,29,40.1,29.7,39.6,30.9z"/>
</g>
</svg>
