<?xml version="1.0" encoding="utf-8"?>
<!-- Generator: Adobe Illustrator 26.3.1, SVG Export Plug-In . SVG Version: 6.00 Build 0)  -->
<svg version="1.1" id="LOGO" xmlns="http://www.w3.org/2000/svg" xmlns:xlink="http://www.w3.org/1999/xlink" x="0px" y="0px"
	 viewBox="0 0 600 600" style="enable-background:new 0 0 600 600;" xml:space="preserve">
<style type="text/css">
	.st0{fill:#1D1D1B;}
</style>
<path id="LOGO_00000029037067082043143640000003502830744714746541_" class="st0" d="M409.8,430.3l92.5,16.9l-72.1,44.3l-73.5-34.4
	L409.8,430.3z M426.3,418.9h74.9l42.7-63.6L462.2,376L426.3,418.9z M471.9,360.3l67-31.4l7.9-68.7l-58,46.8L471.9,360.3z
	 M493.8,282.8l39.3-48.1l-17.2-60.5l-29.5,62.5L493.8,282.8z M482.8,212.1l13.5-54.4l-40.1-45.3l1.2,65.8L482.8,212.1z M446,152.1
	l-7-51.3l-51.3-25.5l25.5,58.2L446,152.1z M300,458.6h-35.2l-83.3,61.8l93.4,4.2l25.1-32.6l25.1,32.6l93.4-4.2l-83.3-61.8H300z
	 M190.2,430.3l-92.5,16.9l72.1,44.3l73.5-34.4L190.2,430.3z M173.7,418.9L137.8,376l-81.7-20.7l42.7,63.6H173.7z M128.1,360.3
	L111.2,307l-58-46.8l7.9,68.7L128.1,360.3z M113.7,236.6l-29.5-62.5l-17.2,60.5l39.3,48.1L113.7,236.6z M142.7,178.3l1.2-65.8
	l-40.1,45.3l13.4,54.4L142.7,178.3z M212.3,75.3L161,100.8l-7,51.3l32.8-18.6L212.3,75.3z M241.2,386.4l5.5-19.3
	c-28.9-3.6-49.3-10.5-55.1-20.4l-7.1-11.4c10.4-9.3,40.4-27.4,114.5-27.1h3.2h0c73.3-0.1,103.1,17.8,113.4,27.1l-7.1,11.4
	c-8.9,15.2-52.1,23.3-108,23.4h-0.8c-0.7,0-1.5,0-2.2,0l-5.8,20.3h-47.1L241.2,386.4z M248.4,361l11-38.3l52.2-2.4l-12.5,43.5
	c0.3,0,0.5,0,0.8,0h0.1c58.2,0,105.7-9.9,104-21.4c-1.5-9.7-43.4-25.5-104-25.1c-60.7-0.4-102.5,15.4-104,25.1
	C194.8,350.2,216.3,357.2,248.4,361z M417.7,331.6c-10.8-10.3-41.2-29.6-117.8-29.6c-76.6,0-107,19.3-117.8,29.6l-10.2-16.4
	c0,0,0.2-0.3,0.6-0.7c4.2-4.4,31.4-28.3,126.3-28.3c0.4,0,0.8,0,1.1,0s0.8,0,1.1,0c94.8,0,122,23.9,126.3,28.3h0
	c0.4,0.5,0.6,0.7,0.6,0.7L417.7,331.6z M191.8,312.3l-7-3l-1.8,6.4l7.7,4.4L191.8,312.3z M243,301.1l-1.1-6.4l-4.3-1.5l-3.6,2.6
	l1.1,6.4l4.3,1.5v0L243,301.1z M303.9,293.1l-4.9-4.9l-4.9,4.9l4.9,6.3L303.9,293.1z M364.2,295.8l-3.6-2.6l-4.3,1.5l-1.1,6.4
	l3.6,2.6l4.3-1.5v0L364.2,295.8z M415.1,315.7l-1.8-6.4l-7,3l1.1,7.8L415.1,315.7z M161.5,302.2c0.6,0.4,1.3,0.9,2,1.7
	c0.6,0.6,1.1,1.2,1.7,1.8l0,0c2.5,2.9,4.7,6.3,4.7,6.3c5.5-6.7,25.7-22,80.6-28c14.2-1.5,30.6-2.5,49.4-2.5c1.9,0,3.9,0,5.7,0
	c0.4,0,0.7,0,1,0c1.9,0,3.7,0,5.5,0.1c83.4,1.8,111.2,22.3,117.7,30.3c0,0,5.3-8,8.5-9.8c4.2-2.4,7.3-3.3,9.2-3.6l6.4-32.4
	l-37.8,3.2l0,0c0.7,1.3,2.3,9.9-1.7,14.7c-3.8,4.6-13.2,4.9-19.2,3.3c-8.2-2.1-13.9-8.8-16.1-15.3c-1.9-5.7-1.8-12.5-1-16.1
	c0.1,0,0.2,0,0.4,0c5.8,0,10.5-4.7,10.5-10.5s-4.7-10.5-10.5-10.5c-2,0-3.9,0.6-5.5,1.6l9-31.4l-5-6l0,0h-30.9l7.9-27.5l-4.9-5.9
	h-44.9l-9.6,33.3H259l-11.1,38.7l4.8,5.8h15.5c10.6-11.4,21.2-22.9,31.8-34.3l0.3,0.3c10.1,10.9,20.3,21.9,30.4,32.8
	c-0.9,0.9-9.9,7.8-4.4,16c0.7,1,1.5,1.8,2.4,2.4l4.9-17.2h34.9c-0.1,0.6-0.2,1.2-0.2,1.9c0,3.4,1.6,6.4,4.1,8.3
	c-1.2,3.1-6.2,8.8-12.7,12.2c-2.1,1.1-9,4.4-18.3,4.1c-4.3-0.2-9.4-0.4-14.6-3.9c-2.7-1.8-7.6-5-8.5-11c-1-6.7,3.9-11.8,4.6-12.5
	c-8.3-8.9-16.5-17.8-24.8-26.7c-8.3,8.9-16.5,17.8-24.8,26.7c0.7,0.7,6.2,5.2,4.6,12.3c-2.5,11.5-12.1,14.1-18.1,15
	c-10.1,1.5-18-1.6-20.1-2.7c-6.5-3.4-13.9-11-15-14.1c2.5-1.9,4.1-4.9,4.1-8.3c0-5.8-4.7-10.5-10.5-10.5c-5.8,0-10.5,4.7-10.5,10.5
	c0,5.8,4.7,10.5,10.5,10.5c0.1,0,0.2,0,0.4,0c0.7,3.6,1.1,9.4-0.4,15.2c-0.7,2.6-1.3,6.5-4.4,9.8c-4.7,5-8.6,6.3-14,7.2
	c-3.4,0.6-12.8,1.7-15.8-5.8c-2.1-5-0.9-11.1-0.3-12.4l-37.8-3.2l6.4,32.4C154.2,298.8,157.3,299.8,161.5,302.2z"/>
</svg>
