<?xml version="1.0" encoding="utf-8"?>
<!-- Generator: Adobe Illustrator 26.5.0, SVG Export Plug-In . SVG Version: 6.00 Build 0)  -->
<svg version="1.1" id="logo_00000044170576089355654310000006476239373854945971_"
	 xmlns="http://www.w3.org/2000/svg" xmlns:xlink="http://www.w3.org/1999/xlink" x="0px" y="0px" viewBox="0 0 512 512"
	 style="enable-background:new 0 0 512 512;" xml:space="preserve">
<style type="text/css">
	.st0{fill:#F3F3F3;}
	.st1{fill:url(#cross_with_crown_00000175297960285879258250000010544382543715885990_);}
</style>
<path id="background" class="st0" d="M384,512H128C57.3,512,0,454.7,0,384V128C0,57.3,57.3,0,128,0h256c70.7,0,128,57.3,128,128v256
	C512,454.7,454.7,512,384,512z"/>
<linearGradient id="cross_with_crown_00000098911685734448989110000010367884378252530843_" gradientUnits="userSpaceOnUse" x1="356.4177" y1="429.1616" x2="156.2431" y2="82.4491">
	<stop  offset="0" style="stop-color:#0E2F54"/>
	<stop  offset="1" style="stop-color:#3C89E7"/>
</linearGradient>
<path id="cross_with_crown" style="fill:url(#cross_with_crown_00000098911685734448989110000010367884378252530843_);" d="
	M345,361.7l74.9,13.7l-58.4,35.9L302,383.3L345,361.7z M358.3,352.4H419l34.6-51.5l-66.2,16.8L358.3,352.4z M395.3,304.9l54.2-25.5
	l6.4-55.6l-47,38L395.3,304.9z M413.1,242.1l31.8-38.9l-14-49L407,204.9L413.1,242.1z M404.1,184.8l10.9-44.1L382.5,104l1,53.4
	L404.1,184.8z M374.3,136.2l-5.7-41.6L327.1,74l20.7,47.1L374.3,136.2z M256,384.6h-28.5l-67.5,50l75.7,3.4l20.4-26.4l20.4,26.4
	l75.7-3.4l-67.5-50H256L256,384.6z M167,361.7l-74.9,13.7l58.4,35.9l59.6-27.9L167,361.7z M153.7,352.4l-29.1-34.7l-66.2-16.8
	L93,352.4H153.7L153.7,352.4z M116.7,304.9L103,261.7l-47-37.9l6.4,55.7L116.7,304.9z M105,204.7L81.1,154l-14,49L98.9,242
	L105,204.7z M128.5,157.4l1-53.4L97,140.8l10.8,44.1L128.5,157.4z M184.9,74l-41.6,20.7l-5.7,41.6l26.5-15L184.9,74z M208.4,326
	l4.5-15.6c-23.4-2.9-39.9-8.5-44.7-16.5l-5.8-9.3c8.4-7.5,32.8-22.2,92.8-22h2.6l0,0c59.4-0.1,83.5,14.4,91.9,22L344,294
	c-7.2,12.3-42.2,18.9-87.5,18.9h-0.7c-0.6,0-1.2,0-1.8,0l-4.7,16.5h-38.2L208.4,326z M214.1,305.5l8.9-31l42.3-2l-10,35.2
	c0.2,0,0.4,0,0.7,0h0.1c47.1,0,85.7-8,84.3-17.4c-1.2-7.9-35.1-20.7-84.3-20.4c-49.2-0.3-83,12.5-84.3,20.4
	C170.7,296.7,188.2,302.3,214.1,305.5z M351.4,281.7c-8.8-8.4-33.4-24-95.5-24s-86.7,15.6-95.5,24l-8.3-13.3c0,0,0.2-0.2,0.5-0.6
	c3.4-3.5,25.5-22.9,102.3-22.9c0.3,0,0.7,0,0.9,0c0.2,0,0.7,0,0.9,0c76.8,0,98.8,19.3,102.3,22.9l0,0c0.3,0.4,0.5,0.6,0.5,0.6
	L351.4,281.7z M168.3,266l-5.7-2.4l-1.5,5.2l6.2,3.5L168.3,266z M209.8,257l-0.9-5.2l-3.5-1.2l-2.9,2.1l0.9,5.2l3.5,1.2l0,0
	L209.8,257z M259.1,250.4l-4-4l-4,4l4,5.1L259.1,250.4z M308,252.7l-2.9-2.1l-3.5,1.2l-0.9,5.2l2.9,2.1l3.5-1.2l0,0L308,252.7z
	 M349.3,268.8l-1.5-5.2l-5.7,2.4l0.9,6.3L349.3,268.8z M143.8,257.9c0.5,0.3,1.1,0.8,1.7,1.4c0.5,0.5,0.9,1,1.4,1.5l0,0
	c2,2.3,3.8,5.1,3.8,5.1c4.5-5.5,20.9-17.9,65.3-22.7c11.5-1.2,24.8-2,40-2c1.6,0,3.1,0,4.6,0c0.3,0,0.6,0,0.8,0c1.6,0,3,0,4.5,0.1
	c67.6,1.5,90.1,18,95.4,24.6c0,0,4.3-6.4,6.9-7.9c3.4-2,6-2.6,7.4-2.9l5.2-26.2l-30.6,2.6l0,0c0.6,1.1,1.9,8-1.4,11.9
	c-3.1,3.7-10.7,4-15.6,2.6c-6.6-1.7-11.2-7.1-13.1-12.4c-1.6-4.6-1.5-10.1-0.8-13.1c0.1,0,0.2,0,0.3,0c4.7,0,8.5-3.8,8.5-8.5
	c0-4.7-3.8-8.5-8.5-8.5c-1.7,0-3.1,0.5-4.5,1.3l7.3-25.5l-4-4.9l0,0h-25.1l6.4-22.2l-4-4.8h-36.4l-7.8,27h-28.9l-9,31.4l3.9,4.7
	h12.6c8.6-9.3,17.2-18.5,25.8-27.8l0.2,0.2c8.2,8.9,16.5,17.8,24.6,26.5c-0.8,0.8-8,6.3-3.5,13c0.6,0.8,1.2,1.5,2,2l4-14h28.3
	c-0.1,0.5-0.2,1-0.2,1.6c0,2.7,1.3,5.2,3.3,6.7c-1,2.5-5,7.1-10.2,9.9c-1.7,0.9-7.3,3.5-14.8,3.3c-3.5-0.2-7.6-0.3-11.8-3.1
	c-2.1-1.5-6.1-4-6.9-8.9c-0.8-5.5,3.1-9.6,3.7-10.1c-6.7-7.2-13.4-14.4-20.1-21.7c-6.7,7.2-13.4,14.4-20.1,21.7
	c0.6,0.6,5,4.2,3.7,10c-2,9.4-9.9,11.4-14.6,12.2c-8.2,1.2-14.5-1.3-16.3-2.1c-5.3-2.7-11.3-8.9-12.2-11.4c2-1.6,3.3-4,3.3-6.7
	c0-4.7-3.8-8.5-8.5-8.5c-4.7,0-8.5,3.8-8.5,8.5c0,4.7,3.8,8.5,8.5,8.5c0.1,0,0.2,0,0.3,0c0.6,2.9,0.9,7.6-0.3,12.3
	c-0.6,2.1-1.1,5.3-3.5,7.9c-3.8,4-6.9,5.1-11.3,5.9c-2.7,0.5-10.3,1.4-12.8-4.7c-1.7-4-0.8-9-0.2-10l-30.6-2.6l5.2,26.2
	C137.9,255,140.4,255.9,143.8,257.9z"/>
</svg>
