<?xml version="1.0" encoding="utf-8"?>
<!-- Generator: Adobe Illustrator 26.5.0, SVG Export Plug-In . SVG Version: 6.00 Build 0)  -->
<svg version="1.1" id="logo_00000044170576089355654310000006476239373854945971_"
	 xmlns="http://www.w3.org/2000/svg" xmlns:xlink="http://www.w3.org/1999/xlink" x="0px" y="0px" viewBox="0 0 512 512"
	 style="enable-background:new 0 0 512 512;" xml:space="preserve">
<style type="text/css">
	.st0{fill:#EDEDED;}
	.st1{fill:url(#cross_with_crown_00000107574892085694613330000012181913666840875661_);}
</style>
<path id="background" class="st0" d="M384,512H128C57.3,512,0,454.7,0,384V128C0,57.3,57.3,0,128,0h256c70.7,0,128,57.3,128,128v256
	C512,454.7,454.7,512,384,512z"/>
<linearGradient id="cross_with_crown_00000151544253204178732320000003949830977598700728_" gradientUnits="userSpaceOnUse" x1="412.4709" y1="124.1814" x2="95.8339" y2="389.8715" gradientTransform="matrix(1 0 0 -1 0 512)">
	<stop  offset="2.557339e-07" style="stop-color:#273F74"/>
	<stop  offset="1" style="stop-color:#2170D0"/>
</linearGradient>
<path id="cross_with_crown" style="fill:url(#cross_with_crown_00000151544253204178732320000003949830977598700728_);" d="
	M347.2,364.3l76.8,14l-59.9,36.8l-61-28.6L347.2,364.3z M360.9,354.8h62.2l35.5-52.8l-67.9,17.2L360.9,354.8z M398.8,306.1
	l55.6-26.1L461,223l-48.2,38.9L398.8,306.1z M417,241.8l32.6-39.9l-14.3-50.2l-24.5,51.9L417,241.8z M407.8,183l11.2-45.2
	l-33.3-37.6l1,54.7L407.8,183z M377.3,133.2l-5.8-42.6l-42.6-21.2l21.2,48.3L377.3,133.2z M256,387.8h-29.2l-69.2,51.3l77.6,3.5
	l20.9-27.1l20.9,27.1l77.6-3.5l-69.2-51.3L256,387.8L256,387.8z M164.8,364.3l-76.8,14l59.9,36.8l61.1-28.6L164.8,364.3z
	 M151.1,354.8l-29.8-35.6L53.4,302l35.5,52.8L151.1,354.8L151.1,354.8z M113.2,306.1l-14-44.3L51,223l6.6,57.1L113.2,306.1z
	 M101.2,203.4l-24.5-51.9l-14.3,50.2l32.6,39.9L101.2,203.4z M125.3,154.9l1-54.7L93,137.9l11.1,45.2L125.3,154.9z M183.1,69.4
	l-42.6,21.2l-5.8,42.6l27.2-15.4L183.1,69.4z M207.2,327.8l4.6-16c-24-3-40.9-8.7-45.8-16.9l-5.9-9.5c8.6-7.7,33.6-22.8,95.1-22.5
	h2.7l0,0c60.9-0.1,85.6,14.8,94.2,22.5l-5.9,9.5c-7.4,12.6-43.3,19.4-89.7,19.4h-0.7c-0.6,0-1.2,0-1.8,0l-4.8,16.9H210L207.2,327.8z
	 M213.1,306.7l9.1-31.8l43.4-2L255.3,309c0.2,0,0.4,0,0.7,0h0.1c48.3,0,87.8-8.2,86.4-17.8c-1.2-8.1-36-21.2-86.4-20.9
	c-50.4-0.3-85.1,12.8-86.4,20.9C168.6,297.7,186.5,303.5,213.1,306.7z M353.8,282.3c-9-8.6-34.2-24.6-97.9-24.6s-88.9,16-97.9,24.6
	l-8.5-13.6c0,0,0.2-0.2,0.5-0.6c3.5-3.6,26.1-23.5,104.9-23.5c0.3,0,0.7,0,0.9,0s0.7,0,0.9,0c78.7,0,101.3,19.8,104.9,23.5l0,0
	c0.3,0.4,0.5,0.6,0.5,0.6L353.8,282.3z M166.1,266.3l-5.8-2.5l-1.5,5.3l6.4,3.6L166.1,266.3z M208.6,257l-0.9-5.3l-3.6-1.2l-3,2.2
	l0.9,5.3l3.6,1.2l0,0L208.6,257z M259.2,250.3l-4.1-4.1l-4.1,4.1l4.1,5.2L259.2,250.3z M309.3,252.6l-3-2.2l-3.6,1.2l-0.9,5.3l3,2.2
	l3.6-1.2l0,0L309.3,252.6z M351.6,269.1l-1.5-5.3l-5.8,2.5l0.9,6.5L351.6,269.1z M141,257.9c0.5,0.3,1.1,0.8,1.7,1.4
	c0.5,0.5,0.9,1,1.4,1.5l0,0c2.1,2.4,3.9,5.2,3.9,5.2c4.6-5.6,21.4-18.3,66.9-23.3c11.8-1.2,25.4-2.1,41-2.1c1.6,0,3.2,0,4.7,0
	c0.3,0,0.6,0,0.8,0c1.6,0,3.1,0,4.6,0.1c69.3,1.5,92.4,18.5,97.8,25.2c0,0,4.4-6.6,7.1-8.1c3.5-2,6.1-2.7,7.6-3l5.3-26.9l-31.4,2.7
	l0,0c0.6,1.1,1.9,8.2-1.4,12.2c-3.2,3.8-11,4.1-16,2.7c-6.8-1.7-11.5-7.3-13.4-12.7c-1.6-4.7-1.5-10.4-0.8-13.4c0.1,0,0.2,0,0.3,0
	c4.8,0,8.7-3.9,8.7-8.7s-3.9-8.7-8.7-8.7c-1.7,0-3.2,0.5-4.6,1.3l7.5-26.1l-4.1-5l0,0h-25.7l6.6-22.8l-4.1-4.9h-37.3l-8,27.7h-29.6
	l-9.2,32.2l4,4.8h12.9c8.8-9.5,17.6-19,26.4-28.5l0.2,0.2c8.4,9.1,16.9,18.2,25.2,27.2c-0.8,0.8-8.2,6.5-3.6,13.3
	c0.6,0.8,1.2,1.5,2,2l4.1-14.3h29c-0.1,0.5-0.2,1-0.2,1.6c0,2.8,1.3,5.3,3.4,6.9c-1,2.6-5.1,7.3-10.5,10.1
	c-1.7,0.9-7.5,3.6-15.2,3.4c-3.6-0.2-7.8-0.3-12.1-3.2c-2.2-1.5-6.3-4.1-7.1-9.1c-0.8-5.6,3.2-9.8,3.8-10.4
	c-6.9-7.4-13.7-14.8-20.6-22.2c-6.9,7.4-13.7,14.8-20.6,22.2c0.6,0.6,5.1,4.3,3.8,10.2c-2.1,9.6-10.1,11.7-15,12.5
	c-8.4,1.2-14.9-1.3-16.7-2.2c-5.4-2.8-11.6-9.1-12.5-11.7c2.1-1.6,3.4-4.1,3.4-6.9c0-4.8-3.9-8.7-8.7-8.7s-8.7,3.9-8.7,8.7
	s3.9,8.7,8.7,8.7c0.1,0,0.2,0,0.3,0c0.6,3,0.9,7.8-0.3,12.6c-0.6,2.2-1.1,5.4-3.6,8.1c-3.9,4.1-7.1,5.2-11.6,6
	c-2.8,0.5-10.6,1.4-13.1-4.8c-1.7-4.1-0.8-9.2-0.2-10.3l-31.4-2.7l5.3,26.9C134.9,255,137.5,255.9,141,257.9z"/>
</svg>
